<?xml version="1.0" encoding="utf-8"?>
<!-- Generator: Adobe Illustrator 21.0.0, SVG Export Plug-In . SVG Version: 6.00 Build 0)  -->
<svg version="1.1" id="Layer_1" xmlns="http://www.w3.org/2000/svg" xmlns:xlink="http://www.w3.org/1999/xlink" x="0px" y="0px"
	 viewBox="0 0 1024 768" style="enable-background:new 0 0 1024 768;" xml:space="preserve">
<style type="text/css">
	.st0{fill:#FFFFFF;}
</style>
<path class="st0" d="M422.1,184c1.4,14.3-0.9,28.3-6.7,41.9c-5.9,13.7-14.4,26-25.5,36.9c-11.1,10.9-24.5,20-40.2,27.3
	c-15.7,7.3-32.6,11.8-50.8,13.6c-6.5,0.6-11.7,0.3-15.6-1c-3.9-1.3-8.5-4.2-13.6-8.7c-10.2,29.6-18.3,56.6-24.2,81.2
	c-5.9,24.6-10.1,48.2-12.6,71c-10.1-1.4-18.5-4.7-25.3-9.9c-6.8-5.2-13.2-12-19.3-20.3c2.1-5.2,4.6-12,7.5-20.4
	c2.9-8.4,6.3-18.8,10.4-31.1c4-12.3,8.7-27.1,14-44.2c5.3-17.2,11.5-37.2,18.7-60.2c3.2-10.5,6-19.7,8.3-27.6
	c2.4-7.8,4.4-15.2,6.1-22c1.7-6.9,3.2-13.6,4.5-20.3c1.3-6.7,2.6-14,4-22c-11.8,5.1-22.6,10.7-32.4,16.9
	c-9.8,6.2-17.7,12.5-23.9,18.8c-2.5-1.3-5.1-3.4-7.9-6.3c-2.8-2.9-5.4-6.1-7.8-9.7c-2.4-3.6-4.6-7.2-6.6-11
	c-1.9-3.7-3.2-7.2-3.7-10.3c7-5.9,15.9-11.6,26.7-17.1c10.7-5.5,22.3-10.5,34.7-15c12.4-4.5,25.3-8.3,38.8-11.4
	c13.5-3.1,26.4-5.3,38.9-6.5c14.8-1.4,28.4-0.8,40.7,1.8c12.3,2.6,23,6.9,31.9,12.8c9,6,16.1,13.4,21.4,22.3
	C417.7,162.4,421,172.6,422.1,184z M348.2,144c-9.9,1-19.9,2.7-30.2,5.3l5.4,6.6c-2.3,3.6-5,9-8.3,16.1c-3.2,7.1-6.7,15.7-10.5,25.6
	c-3.8,9.9-7.9,21-12.3,33.2c-4.5,12.2-9.2,25.1-14.1,38.7c20.3-2,38.5-5.6,54.8-11c16.3-5.4,30-12,41.1-19.7
	c11.2-7.8,19.6-16.4,25.4-25.9c5.8-9.5,8.2-19.3,7.2-29.4c-1.3-13.5-6.9-23.9-16.8-31.2C380,145,366.1,142.3,348.2,144z"/>
<path class="st0" d="M506.8,377.3c-5.3-3.7-9.2-8.6-11.4-14.6c-2.3-6.1-3.7-11.3-4.1-15.7c-0.5-5.5-0.3-10.2,0.6-14.2
	c-1,0.1-3.2,2.4-6.4,6.9c-3.2,4.5-6.7,9.8-10.5,15.9c-3.7,6.1-7.4,12.1-11,17.9c-3.6,5.8-6.4,10.2-8.2,12.9c-3,4-5.9,7.1-8.7,9.5
	c-2.8,2.4-5.1,3.8-6.9,4.2c-4.2,0.4-8.6,0.1-13.3-0.9c-4.7-1-9.2-2.6-13.4-4.8c-4.3-2.2-8.1-5-11.4-8.4c-3.3-3.4-5.8-7.4-7.3-12
	c-0.7-7.3-1.1-13.3-1.2-18c-0.1-4.7,0.3-9.9,1.1-15.4c1.4-10.1,3.7-21.6,7.1-34.5c3.3-12.9,7.4-25.7,12.2-38.4
	c4.8-12.7,10.4-24.6,16.8-35.8c6.4-11.2,13.4-20.2,21.2-27c2.3-0.2,5.1-0.3,8.2-0.2c3.2,0.1,6.4,0.5,9.8,1.2
	c3.3,0.7,6.6,1.7,9.7,2.8c3.1,1.1,5.8,2.8,8.1,4.9c-2.1,2.8-7.2,12.1-15.2,27.8c-8,15.7-16.6,38.1-25.6,67c-1,3-2.2,7.3-3.5,12.9
	c-1.3,5.6-2.6,11.5-3.8,17.7c-1.2,6.2-2.2,12.1-2.8,18c-0.6,5.8-0.8,10.4-0.4,13.8c0.2,2.1,0.7,3.6,1.4,4.6c0.7,1,1.4,1.7,2,2.2
	c3.7-1.9,8.3-6.7,13.6-14.3c5.3-7.6,12.6-19.2,21.8-34.8c2.2-3.9,4.9-8.3,7.9-13.4c3.1-5,6.1-10.4,9.3-16c3.1-5.7,6-11.5,8.7-17.6
	c2.7-6,4.8-12,6.3-17.9c0.7-3.2,1.7-7.1,3-11.5c1.3-4.4,2.9-9.1,4.9-14c2-4.9,4.4-9.9,7.2-15.1c2.8-5.1,6.2-10,10.2-14.6
	c3.4-0.3,7.1-0.3,11,0.1c4,0.4,7.8,1,11.4,1.8c3.6,0.8,6.8,1.8,9.5,3c2.7,1.2,4.8,2.5,6.3,3.9c-3.6,11.9-7.7,23.7-12.3,35.4
	c-4.6,11.7-8.9,23.2-12.8,34.5c-3.9,11.3-7,22.4-9.3,33.4c-2.3,11-3,21.5-2,31.7c0.5,5.5,1.4,10.2,2.7,14.1c1.3,3.9,2.6,7.2,3.9,9.8
	c1.3,2.6,2.5,4.8,3.6,6.5c1.1,1.7,1.7,3.2,1.8,4.5c0,0.3-0.2,0.7-0.7,1.2c-0.2,0.3-0.5,0.4-0.7,0.5c-1.8,0.2-4.2,0-7.1-0.5
	c-2.9-0.5-6.2-1.3-9.9-2.4c-3.6-1.1-7.3-2.4-11-3.8C513.6,380.7,510.1,379.1,506.8,377.3z"/>
<path class="st0" d="M615.7,376.9c11.2-9.2,21.8-20.7,32.1-34.4c10.2-13.7,19.3-28.4,27.2-43.9c7.9-15.6,14.4-31.6,19.3-48.1
	c5-16.5,7.9-32.1,8.8-46.9c-0.3-3.1-2.2-5-5.7-5.7c-3.6,0.4-8.3,4-14.1,11c-5.7,7-12,15.8-18.7,26.4c-6.7,10.6-13.4,22.4-20.2,35.4
	c-6.7,13-12.8,25.8-18.1,38.5c-5.3,12.7-9.7,24.5-13.3,35.5c-3.5,11-5.2,19.7-5.1,26.3c-2.6,0.3-5.1-2.1-7.4-7.1
	c-0.6-1.2-1.7-2.5-3.1-3.8c-1.4-1.3-3.7-2.8-6.7-4.7c-1.4-0.9-2.8-2-4.3-3.3c-1.4-1.3-2.5-2.4-3.1-3.4c-1.2-2-2.1-5.3-2.5-10
	c-1.5-15.3-1.2-32.8,0.8-52.4c2-19.6,5.3-39.7,9.7-60.3c4.4-20.6,10-41,16.7-61.2c6.7-20.2,13.9-38.8,21.5-55.8
	c7.7-17,15.6-31.5,23.9-43.6c8.3-12.1,16.4-20.3,24.3-24.8c2.7,0.5,5.9,1.5,9.7,3c3.8,1.5,7.6,3.2,11.5,5.2c3.9,2,7.5,4,11,6
	c3.5,2,6.1,3.9,7.8,5.5c-26.3,25.9-48.2,58-65.6,96.2c-17.4,38.3-30.3,82.7-38.8,133.4c6-14.2,12.9-28.1,20.7-41.5
	c7.9-13.5,15.8-25.5,23.8-35.9c8-10.5,15.9-19,23.5-25.5c7.6-6.5,14.2-10,19.6-10.6c4.3,0.6,8.5,2.1,12.6,4.3
	c4.1,2.2,8,5.1,11.4,8.5c3.5,3.5,6.5,7.2,9,11.3c2.5,4.1,4.2,8.4,5.2,13.1c0.8,10.9,0,22.7-2.3,35.4c-2.3,12.7-5.8,25.3-10.5,37.8
	c-4.7,12.5-10.2,24.6-16.5,36.2c-6.3,11.6-13.2,21.9-20.6,30.9c-7.4,9-14.9,16.3-22.6,22.1c-7.7,5.7-15.2,8.9-22.5,9.7
	c-3.1,0.3-6.3,0.3-9.6,0c-3.3-0.3-6.4-1-9.2-1.9c-2.8-0.9-5.2-1.9-7-3.1C616.7,379.4,615.8,378.2,615.7,376.9z"/>
<path class="st0" d="M377.9,678.3c-1.1-10.9-0.6-25.2,1.4-42.7c2-17.5,5-36.4,9.1-56.5c-17,3-34,6.5-51.1,10.3
	c-17.1,3.9-32,6.4-44.7,7.6c-9,28.4-15.9,54.5-20.5,78.2c-4.7,23.7-7.9,46.6-9.6,68.9c-10.1-1.4-18.7-4.7-25.7-9.9
	c-7.1-5.2-13.7-12-20.1-20.3c1.7-4.4,3.6-9.9,5.7-16.7c2.1-6.8,4.6-14.9,7.5-24.5c2.9-9.6,6.1-20.8,9.7-33.6
	c3.6-12.8,7.7-27.7,12.4-44.7c-8.9-2.8-15.1-7.3-18.6-13.5c1.2-1.2,4-2.6,8.4-4.2c4.4-1.6,10-3.4,16.6-5.3l3.9-13
	c4.1-14.6,7.4-26.8,10-36.8c2.6-9.9,4.6-19.7,6.2-29.1c1.6-9.5,2.9-19.9,4-31.3c1.1-11.4,2.4-25.8,3.9-43.2
	c11.1,1,21.5,4.9,31.2,11.5c9.7,6.7,18.3,15,25.8,25c-2,3.3-4.4,8.3-7.2,14.9c-2.8,6.6-5.8,14.4-8.9,23.5
	c-3.2,9.1-6.6,19.3-10.2,30.5c-3.6,11.2-7.6,23.1-11.9,35.6c15.9-3.8,32-7.4,48.3-11c16.3-3.5,30.8-5.9,43.5-7.2
	c3.4-14,6.9-27.7,10.8-41.2c3.8-13.4,7.7-25.7,11.6-36.9c3.9-11.2,7.7-21,11.5-29.6c3.8-8.5,7.3-14.9,10.5-19.2
	c2.6,0,6.2,0.7,10.6,1.9c4.5,1.3,9,2.9,13.6,4.8c4.6,1.9,8.9,4.1,12.8,6.4c3.9,2.4,6.6,4.7,8.1,6.9c-4.2,4.9-8.4,11-12.4,18.5
	c-4,7.5-7.8,16-11.5,25.5c-3.7,9.5-7.2,19.8-10.6,30.9c-3.4,11.1-6.5,22.5-9.3,34.3c5.6,4.2,8.8,9.8,9.5,16.8
	c0.5,4.9-0.1,9.6-1.8,13.9c-2.4-0.4-4.8-0.5-7.1-0.3c-2.3,0.2-4.8,0.3-7.4,0.3c-3.1,14.4-5.7,28.7-8,42.8
	c-2.3,14.1-4.1,27.5-5.3,40.1c-1.3,12.7-2.1,24.3-2.5,34.8c-0.4,10.5-0.3,19.2,0.4,26.2c0.3,2.6,0.5,4.7,0.8,6.2
	c0.3,1.5,0.6,2.8,1,3.8c-5.7,0.6-10,0.1-12.7-1.3c-2.8-1.4-4.9-3.1-6.4-4.9c-1.5-1.8-2.9-3.7-4.1-5.5c-1.2-1.9-3.1-3.2-5.5-4
	c-1.9-0.6-3.8-2.3-5.6-5c-1.8-2.7-3.5-5.8-4.8-9.4c-1.4-3.5-2.5-7.1-3.4-10.7C378.6,683.6,378.1,680.6,377.9,678.3z"/>
<path class="st0" d="M563.3,672.3c-5.3-3.7-9.2-8.6-11.4-14.6c-2.3-6.1-3.7-11.3-4.1-15.7c-0.5-5.5-0.3-10.2,0.6-14.2
	c-1,0.1-3.2,2.4-6.4,6.9c-3.2,4.5-6.7,9.8-10.4,15.9c-3.7,6.1-7.4,12.1-11,17.9c-3.6,5.8-6.4,10.2-8.2,12.9c-3,4-5.9,7.1-8.7,9.5
	c-2.8,2.4-5.1,3.8-6.9,4.2c-4.2,0.4-8.6,0.1-13.3-0.9c-4.7-1-9.2-2.6-13.4-4.8c-4.3-2.2-8.1-5-11.4-8.4c-3.3-3.4-5.8-7.4-7.3-12
	c-0.7-7.3-1.1-13.3-1.2-18c-0.1-4.7,0.3-9.9,1.1-15.4c1.4-10.1,3.7-21.6,7.1-34.5c3.3-12.9,7.4-25.7,12.2-38.3
	c4.8-12.7,10.4-24.6,16.8-35.8c6.4-11.2,13.4-20.2,21.2-27c2.3-0.2,5.1-0.3,8.2-0.2c3.2,0.1,6.4,0.5,9.8,1.2
	c3.3,0.7,6.6,1.7,9.7,2.8c3.1,1.1,5.8,2.8,8.1,4.9c-2.1,2.8-7.2,12.1-15.2,27.8c-8,15.7-16.6,38.1-25.6,67c-1,3-2.2,7.3-3.5,12.9
	c-1.3,5.6-2.6,11.5-3.8,17.7c-1.2,6.2-2.2,12.1-2.8,18c-0.6,5.8-0.8,10.4-0.4,13.8c0.2,2.1,0.7,3.6,1.4,4.6c0.7,1,1.4,1.7,2,2.2
	c3.7-1.9,8.3-6.7,13.6-14.3c5.3-7.6,12.6-19.2,21.8-34.8c2.2-3.9,4.9-8.3,7.9-13.4c3.1-5,6.1-10.4,9.3-16c3.1-5.7,6-11.5,8.7-17.6
	c2.7-6,4.8-12,6.3-17.9c0.7-3.2,1.7-7.1,3-11.5c1.3-4.4,2.9-9.1,4.9-14c2-4.9,4.4-9.9,7.2-15.1c2.8-5.1,6.2-10,10.2-14.6
	c3.4-0.3,7.1-0.3,11,0.1c4,0.4,7.8,1,11.4,1.8c3.6,0.8,6.8,1.8,9.5,3c2.7,1.2,4.8,2.5,6.3,3.9c-3.6,11.9-7.7,23.7-12.3,35.4
	c-4.6,11.7-8.9,23.2-12.8,34.5c-3.9,11.3-7,22.4-9.3,33.4c-2.3,11-3,21.5-2,31.7c0.5,5.5,1.4,10.2,2.7,14.1c1.3,3.9,2.6,7.2,3.9,9.8
	c1.3,2.6,2.5,4.8,3.6,6.5c1.1,1.7,1.7,3.2,1.8,4.5c0,0.3-0.2,0.7-0.7,1.2c-0.2,0.3-0.5,0.4-0.7,0.5c-1.8,0.2-4.2,0-7.1-0.5
	c-2.9-0.5-6.2-1.3-9.9-2.4c-3.6-1.1-7.3-2.4-11-3.8C570.1,675.7,566.6,674.1,563.3,672.3z"/>
<path class="st0" d="M675.2,671.8c11.2-9.2,21.8-20.7,32.1-34.4c10.2-13.7,19.3-28.3,27.2-43.9c7.9-15.6,14.4-31.6,19.3-48.1
	c5-16.5,7.9-32.1,8.8-46.9c-0.3-3.1-2.2-5-5.7-5.7c-3.6,0.4-8.3,4-14.1,11c-5.8,7-12,15.8-18.7,26.4c-6.7,10.6-13.4,22.4-20.2,35.4
	c-6.7,13-12.8,25.8-18.1,38.5c-5.3,12.7-9.7,24.5-13.3,35.5c-3.5,11-5.2,19.7-5.1,26.3c-2.6,0.3-5.1-2.1-7.4-7.1
	c-0.6-1.2-1.7-2.5-3.1-3.8c-1.4-1.3-3.7-2.9-6.7-4.7c-1.4-0.9-2.8-2-4.3-3.3c-1.4-1.3-2.5-2.4-3.1-3.4c-1.2-2-2.1-5.3-2.5-10
	c-1.5-15.3-1.2-32.8,0.8-52.4c2-19.6,5.3-39.7,9.7-60.3c4.4-20.6,10-41,16.7-61.2c6.7-20.2,13.9-38.8,21.5-55.8
	c7.7-17,15.6-31.5,23.9-43.6c8.3-12.1,16.4-20.3,24.3-24.8c2.7,0.5,5.9,1.5,9.7,3c3.8,1.5,7.6,3.2,11.5,5.2c3.9,2,7.5,4,11,6
	c3.5,2,6.1,3.9,7.8,5.5c-26.3,25.9-48.2,58-65.6,96.2c-17.4,38.3-30.3,82.7-38.8,133.4c6-14.2,12.9-28.1,20.7-41.5
	c7.9-13.5,15.8-25.5,23.8-35.9c8-10.5,15.9-19,23.5-25.5c7.6-6.5,14.2-10,19.6-10.6c4.3,0.6,8.5,2.1,12.6,4.3
	c4.1,2.2,8,5.1,11.4,8.5c3.5,3.5,6.5,7.2,9,11.3c2.5,4.1,4.2,8.4,5.2,13.1c0.8,10.9,0,22.7-2.3,35.4c-2.3,12.7-5.8,25.3-10.5,37.8
	c-4.7,12.5-10.2,24.6-16.5,36.2c-6.3,11.6-13.2,21.9-20.6,30.9c-7.4,9-14.9,16.3-22.6,22.1c-7.7,5.7-15.2,8.9-22.5,9.7
	c-3.1,0.3-6.3,0.3-9.6,0c-3.3-0.3-6.4-1-9.2-1.9c-2.8-0.9-5.2-1.9-7-3.1C676.3,674.4,675.3,673.1,675.2,671.8z"/>
<g>
	<path class="st0" d="M798.9,479.3c0,3.6-2.8,6.5-6.6,6.5c-3.7,0-6.6-2.8-6.6-6.5c0-3.5,2.9-6.4,6.6-6.4
		C796,472.9,798.9,475.7,798.9,479.3z M787.4,479.3c0,2.8,2.1,5.1,5,5.1c2.8,0,4.9-2.3,4.9-5.1c0-2.8-2.1-5.1-4.9-5.1
		C789.5,474.2,787.4,476.5,787.4,479.3z M791.3,482.6h-1.5v-6.4c0.6-0.1,1.4-0.2,2.5-0.2c1.2,0,1.8,0.2,2.2,0.5
		c0.4,0.3,0.6,0.8,0.6,1.4c0,0.7-0.5,1.2-1.3,1.5v0.1c0.6,0.2,1,0.7,1.2,1.6c0.2,1,0.3,1.4,0.5,1.6h-1.6c-0.2-0.2-0.3-0.8-0.5-1.6
		c-0.1-0.7-0.5-1-1.3-1h-0.7V482.6z M791.4,479h0.7c0.8,0,1.5-0.3,1.5-0.9c0-0.6-0.4-1-1.4-1c-0.4,0-0.7,0-0.8,0.1V479z"/>
</g>
</svg>
