<svg id="Layer_1" data-name="Layer 1" xmlns="http://www.w3.org/2000/svg" viewBox="0 0 380.12 399.54"><defs><style>.cls-1,.cls-2{fill:#2484af;}.cls-2{stroke:#2484af;stroke-miterlimit:10;stroke-width:3px;}.cls-3{fill:#fff;}</style></defs><title>Artboard 1</title><path class="cls-1" d="M380.12,160.91l-.41-.33.06-.06c-.22-.21-.48-.43-.76-.65l.06-.06c-.22-.21-.48-.43-.76-.65l.06-.06c-.22-.21-.48-.43-.76-.65l.06-.06c-.22-.21-.48-.43-.76-.65l.06-.06c-.22-.21-.48-.43-.76-.65l.06-.06c-.22-.21-.48-.43-.76-.65l.06-.06c-.22-.21-.48-.43-.76-.65l.06-.06c-.22-.21-.48-.43-.76-.65l.06-.06c-.22-.21-.48-.43-.76-.65l.06-.06c-.22-.21-.48-.43-.76-.65l.06-.06c-.22-.21-.48-.43-.76-.65l.06-.06c-.22-.21-.48-.43-.76-.65l.06-.06c-.22-.21-.48-.43-.76-.65l.06-.06c-.22-.21-.48-.43-.76-.65l.06-.06c-.22-.21-.48-.43-.76-.65l.06-.06c-.22-.21-.48-.43-.76-.65l.06-.06c-.22-.21-.48-.43-.76-.65l.06-.06c-.22-.21-.48-.43-.76-.65l.06-.06c-.22-.21-.48-.43-.76-.65l.06-.06c-.22-.21-.48-.43-.76-.65l.06-.06c-.22-.21-.48-.43-.76-.65l.06-.06c-.22-.21-.48-.43-.76-.65l.06-.06c-.22-.21-.48-.43-.76-.65l.06-.06c-.22-.21-.48-.43-.76-.65l.06-.06c-.22-.21-.48-.43-.76-.65l.06-.06c-.22-.21-.48-.43-.76-.65l.06-.06c-.22-.21-.48-.43-.76-.65l.06-.06c-.22-.21-.48-.43-.76-.65l.06-.06c-.22-.21-.48-.43-.76-.65l.06-.06c-.22-.21-.48-.43-.76-.65l.06-.06c-.22-.21-.48-.43-.76-.65l.06-.06c-.22-.21-.48-.43-.76-.65l.06-.06c-.22-.21-.48-.43-.76-.65l.06-.06c-.22-.21-.48-.43-.76-.65l.06-.06c-.22-.21-.48-.43-.76-.65l.06-.06c-.22-.21-.48-.43-.76-.65l.06-.06c-.22-.21-.48-.43-.76-.65l.06-.06c-.22-.21-.48-.43-.76-.65l.06-.06c-.22-.21-.48-.43-.76-.65l.06-.06c-.22-.21-.48-.43-.76-.65l.06-.06c-.22-.21-.48-.43-.76-.65l.06-.06c-.22-.21-.48-.43-.76-.65l.06-.06c-.22-.21-.48-.43-.76-.65l.06-.06c-.22-.21-.48-.43-.76-.65l.06-.06c-.22-.21-.48-.43-.76-.65l.06-.06c-.22-.21-.48-.43-.76-.65l.06-.06c-.22-.21-.48-.43-.76-.65l.06-.06c-.22-.21-.48-.43-.76-.65l.06-.06c-.22-.21-.48-.43-.76-.65l.06-.06c-.22-.21-.48-.43-.76-.65l.06-.06c-.22-.21-.48-.43-.76-.65l.06-.06c-.22-.21-.48-.43-.76-.65l.06-.06c-.22-.21-.48-.43-.76-.65l.06-.06c-.22-.21-.48-.43-.76-.65l.06-.06c-.22-.21-.48-.43-.76-.65l.06-.06c-.22-.21-.48-.43-.76-.65l.06-.06c-.22-.21-.48-.43-.76-.65l.06-.06c-.22-.21-.48-.43-.76-.65l.06-.06c-.22-.21-.48-.43-.76-.65l.06-.06c-.22-.21-.48-.43-.76-.65l.06-.06c-.22-.21-.48-.43-.76-.65l.06-.06c-.22-.21-.48-.43-.76-.65l.06-.06c-.22-.21-.48-.43-.76-.65l.06-.06c-.22-.21-.48-.43-.76-.65l.06-.06c-.22-.21-.48-.43-.76-.65l.06-.06c-.22-.21-.48-.43-.76-.65l.06-.06c-.22-.21-.48-.43-.76-.65l.06-.06c-.22-.21-.48-.43-.76-.65l.06-.06c-.22-.21-.48-.43-.76-.65l.06-.06c-.22-.21-.48-.43-.76-.65l.06-.06c-.22-.21-.48-.43-.76-.65l.06-.06c-.22-.21-.48-.43-.76-.65l.06-.06c-.22-.21-.48-.43-.76-.65l.06-.06c-.22-.21-.48-.43-.76-.65l.06-.06c-.22-.21-.48-.43-.76-.65l.06-.06c-.22-.21-.48-.43-.76-.65l.06-.06c-.22-.21-.48-.43-.76-.65l.06-.06c-.22-.21-.48-.43-.76-.65l.06-.06c-.22-.21-.48-.43-.76-.65l.06-.06c-.22-.21-.48-.43-.76-.65l.06-.06c-.22-.21-.48-.43-.76-.65l.06-.06c-.22-.21-.48-.43-.76-.65l.06-.06c-.22-.21-.48-.43-.76-.65l.06-.06c-.22-.21-.48-.43-.76-.65l.06-.06c-.22-.21-.48-.43-.76-.65l.06-.06c-.22-.21-.48-.43-.76-.65l.06-.06c-.22-.21-.48-.43-.76-.65l.06-.06c-.22-.21-.48-.43-.76-.65l.06-.06c-.22-.21-.48-.43-.76-.65l.06-.06c-.22-.21-.48-.43-.76-.65l.06-.06c-.22-.21-.48-.43-.76-.65l.06-.06c-.22-.21-.48-.43-.76-.65l.06-.06c-.22-.21-.48-.43-.76-.65l.06-.06c-.22-.21-.48-.43-.76-.65l.06-.06c-.22-.21-.48-.43-.76-.65l.06-.06c-.22-.21-.48-.43-.76-.65l.06-.06c-.22-.21-.48-.43-.76-.65l.06-.06c-.22-.21-.48-.43-.76-.65l.06-.06c-.22-.21-.48-.43-.76-.65l.06-.06c-.22-.21-.48-.43-.76-.65l.06-.06c-.22-.21-.48-.43-.76-.65l.06-.06c-.22-.21-.48-.43-.76-.65l.06-.06c-.22-.21-.48-.43-.76-.65l.06-.06c-.22-.21-.48-.43-.76-.65l.06-.06c-.22-.21-.48-.43-.76-.65l.06-.06c-.22-.21-.48-.43-.76-.65l.06-.06c-.22-.21-.48-.43-.76-.65l.06-.06c-.22-.21-.48-.43-.76-.65l.06-.06c-.22-.21-.48-.43-.76-.65l.06-.06c-.22-.21-.48-.43-.76-.65l.06-.06c-.22-.21-.48-.43-.76-.65l.06-.06c-.22-.21-.48-.43-.76-.65l.06-.06c-.22-.21-.48-.43-.76-.65l.06-.06c-.22-.21-.48-.43-.76-.65l.06-.06c-.22-.21-.48-.43-.76-.65l.06-.06c-.22-.21-.48-.43-.76-.65l.06-.06c-.22-.21-.48-.43-.76-.65l.06-.06c-.22-.21-.48-.43-.76-.65l.06-.06c-.22-.21-.48-.43-.76-.65l.06-.06c-.22-.21-.48-.43-.76-.65l.06-.06c-.22-.21-.48-.43-.76-.65l.06-.06c-.22-.21-.48-.43-.76-.65l.06-.06c-.22-.21-.48-.43-.76-.65l.06-.06c-.22-.21-.48-.43-.76-.65l.06-.06c-.22-.21-.48-.43-.76-.65l.06-.06c-.22-.21-.48-.43-.76-.65l.06-.06c-.22-.21-.48-.43-.76-.65l.06-.06c-.22-.21-.48-.43-.76-.65l.06-.06c-.22-.21-.48-.43-.76-.65l.06-.06c-.22-.21-.48-.43-.76-.65l.06-.06c-.22-.21-.48-.43-.76-.65l.06-.06c-.22-.21-.48-.43-.76-.65l.06-.06c-.22-.21-.48-.43-.76-.65l.06-.06c-.22-.21-.48-.43-.76-.65l.06-.06c-.22-.21-.48-.43-.76-.65l.06-.06c-.22-.21-.48-.43-.76-.65l.06-.06c-.22-.21-.48-.43-.76-.65l.06-.06c-.22-.21-.48-.43-.76-.65l.06-.06c-.22-.21-.48-.43-.76-.65l.06-.06c-.22-.21-.48-.43-.76-.65l.06-.06c-.22-.21-.48-.43-.76-.65l.06-.06c-.22-.21-.48-.43-.76-.65l.06-.06c-.22-.21-.48-.43-.76-.65l.06-.06c-.22-.21-.48-.43-.76-.65l.06-.06c-.22-.21-.48-.43-.76-.65l.06-.06c-.22-.21-.48-.43-.76-.65l.06-.06c-.22-.21-.48-.43-.76-.65l.06-.06c-.22-.21-.48-.43-.76-.65l.06-.06c-.22-.21-.48-.43-.76-.65l.06-.06c-.22-.21-.48-.43-.76-.65l.06-.06c-.22-.21-.48-.43-.76-.65l.06-.06c-.22-.21-.48-.43-.76-.65l.06-.06c-.22-.21-.48-.43-.76-.65l.06-.06c-.22-.21-.48-.43-.76-.65l.06-.06c-.22-.21-.48-.43-.76-.65l.06-.06c-.22-.21-.48-.43-.76-.65l.06-.06c-.22-.21-.48-.43-.76-.65l.06-.06c-.22-.21-.48-.43-.76-.65l.06-.06c-.22-.21-.48-.43-.76-.65l.06-.06c-.22-.21-.48-.43-.76-.65l.06-.06c-.22-.21-.48-.43-.76-.65l.06-.06c-.22-.21-.48-.43-.76-.65l.06-.06c-.22-.21-.48-.43-.76-.65l.06-.06c-.22-.21-.48-.43-.76-.65l.06-.06c-.22-.21-.48-.43-.76-.65l.06-.06c-.22-.21-.48-.43-.76-.65l.06-.06c-.22-.21-.48-.43-.76-.65l.06-.06c-.22-.21-.48-.43-.76-.65l.06-.06c-.22-.21-.48-.43-.76-.65l.06-.06c-.22-.21-.48-.43-.76-.65l.06-.06c-.22-.21-.48-.43-.76-.65l.06-.06c-.22-.21-.48-.43-.76-.65l.06-.06c-.22-.21-.48-.43-.76-.65l.06-.06c-.22-.21-.48-.43-.76-.65l.06-.06c-.22-.21-.48-.43-.76-.65l.06-.06c-.22-.21-.48-.43-.76-.65l.06-.06c-.22-.21-.48-.43-.76-.65l.06-.06c-.22-.21-.48-.43-.76-.65l.06-.06c-.22-.21-.48-.43-.76-.65l.06-.06c-.22-.21-.48-.43-.76-.65l.06-.06c-.22-.21-.48-.43-.76-.65l.06-.06c-.22-.21-.48-.43-.76-.65l.06-.06c-.22-.21-.48-.43-.76-.65l.06-.06c-.22-.21-.48-.43-.76-.65l.06-.06c-.22-.21-.48-.43-.76-.65l.06-.06c-.22-.21-.48-.43-.76-.65l.06-.06c-.22-.21-.48-.43-.76-.65l.06-.06c-.22-.21-.48-.43-.76-.65l.06-.06c-.22-.21-.48-.43-.76-.65l.06-.06c-.22-.21-.48-.43-.76-.65l.06-.06c-.22-.21-.48-.43-.76-.65l.06-.06c-.22-.21-.48-.43-.76-.65l.06-.06c-.22-.21-.48-.43-.76-.65l.06-.06c-.22-.21-.48-.43-.76-.65l.06-.06c-.22-.21-.48-.43-.76-.65l.06-.06c-.22-.21-.48-.43-.76-.65l.06-.06c-.22-.21-.48-.43-.76-.65l.06-.06c-.22-.21-.48-.43-.76-.65l.06-.06c-.22-.21-.48-.43-.76-.65l.06-.06c-.22-.21-.48-.43-.76-.65l.06-.06c-.22-.21-.48-.43-.76-.65l.06-.06c-.22-.21-.48-.43-.76-.65l.06-.06c-.22-.21-.48-.43-.76-.65l.06-.06c-.22-.21-.48-.43-.76-.65l.06-.06c-.22-.21-.48-.43-.76-.65l.06-.06c-.22-.21-.48-.43-.76-.65l.06-.06c-.22-.21-.48-.43-.76-.65l.06-.06c-.22-.21-.48-.43-.76-.65l.06-.06c-.22-.21-.48-.43-.76-.65l.06-.06c-.22-.21-.48-.43-.76-.65l.06-.06c-.22-.21-.48-.43-.76-.65l.06-.06c-.22-.21-.48-.43-.76-.65l.06-.06a18,18,0,0,0-3.3-2.34q-2.2-1.28-4.65-2.54a50,50,0,0,0-4.86-2.18A26,26,0,0,0,213,2.32q-5,2.82-10.27,10.46a119.83,119.83,0,0,0-10.08,18.41,254.2,254.2,0,0,0-16.13,49.38c-.3,1.38-.56,2.75-.83,4.12a6.09,6.09,0,0,0-.69-.56l0-.11a6.09,6.09,0,0,0-.74-.6l0-.11a6.08,6.08,0,0,0-.74-.6l0-.11a6.08,6.08,0,0,0-.74-.6l0-.11a6.09,6.09,0,0,0-.74-.6l0-.11a6.08,6.08,0,0,0-.74-.6l0-.11a6.08,6.08,0,0,0-.74-.6l0-.11a6.09,6.09,0,0,0-.74-.6l0-.11a6.08,6.08,0,0,0-.74-.6l0-.11a6.09,6.09,0,0,0-.74-.6l0-.11a6.08,6.08,0,0,0-.74-.6l0-.11a8.64,8.64,0,0,0-2.65-1.65,23.67,23.67,0,0,0-4-1.27,39.25,39.25,0,0,0-4.81-.78,23.71,23.71,0,0,0-4.65,0,33.82,33.82,0,0,0-4.3,6.15,64.72,64.72,0,0,0-3,6.35c-.15.37-.29.72-.43,1.08l0,0,.05-.07a9.75,9.75,0,0,0-.76-.63l.05-.07a9.79,9.79,0,0,0-.76-.63l.05-.07a9.77,9.77,0,0,0-.76-.63l.05-.07a9.77,9.77,0,0,0-.76-.63l.05-.07a9.8,9.8,0,0,0-.76-.63l.05-.07a9.78,9.78,0,0,0-.76-.63l.05-.07a9.77,9.77,0,0,0-.76-.63l.05-.07a9.8,9.8,0,0,0-.76-.63l.05-.07a9.79,9.79,0,0,0-.76-.63l.05-.07a9.77,9.77,0,0,0-.76-.63l.05-.07a9.75,9.75,0,0,0-.76-.63l.05-.07a9.81,9.81,0,0,0-.76-.63l.05-.07a9.77,9.77,0,0,0-.76-.63l.05-.07a9.75,9.75,0,0,0-.76-.63l.05-.07a9.79,9.79,0,0,0-.76-.63l.05-.07a9.77,9.77,0,0,0-.76-.63l.05-.07a10.11,10.11,0,0,0-3.44-2.07,31.67,31.67,0,0,0-4.1-1.18c-.38-.08-.75-.13-1.13-.19l-.11-.11c-.23-.24-.47-.47-.71-.71s-.47-.47-.71-.71-.47-.47-.71-.71-.47-.47-.71-.71-.47-.47-.71-.71-.47-.47-.71-.71-.47-.47-.71-.71-.47-.47-.71-.71-.47-.47-.71-.71-.47-.47-.71-.71-.47-.47-.71-.71-.47-.47-.71-.71-.47-.47-.71-.71-.47-.47-.71-.71-.47-.47-.71-.71-.47-.47-.71-.71-.47-.47-.71-.71-.47-.47-.71-.71-.47-.47-.71-.71-.47-.47-.71-.71-.47-.47-.71-.71-.47-.47-.71-.71-.47-.47-.71-.71-.47-.47-.71-.71-.47-.47-.71-.71-.47-.47-.71-.71-.47-.47-.71-.71-.47-.47-.71-.71-.47-.47-.71-.71-.47-.47-.71-.71-.47-.47-.71-.71-.47-.47-.71-.71-.47-.47-.71-.71-.47-.47-.71-.71-.47-.47-.71-.71-.47-.47-.71-.71-.47-.47-.71-.71-.47-.47-.71-.71a30.18,30.18,0,0,0-5.2-4.35A38.66,38.66,0,0,0,78.42,35.2a56.54,56.54,0,0,0-17.17-.74,126.05,126.05,0,0,0-16.42,2.76A145.93,145.93,0,0,0,28.45,42a126.55,126.55,0,0,0-14.66,6.32A59.73,59.73,0,0,0,2.54,55.6a15.66,15.66,0,0,0,1.58,4.33,43.13,43.13,0,0,0,2.77,4.63,31.39,31.39,0,0,0,3.3,4.08c.21.22.42.41.62.61l.09.1c.21.22.42.41.62.61l.09.1c.21.22.42.41.62.61l.09.1c.21.22.42.41.62.61l.09.1c.21.22.42.41.62.61l.09.1c.21.22.42.41.62.61l.09.1c.21.22.42.41.62.61l.09.1c.21.22.42.41.62.61l.09.1c.21.22.42.41.62.61l.09.1c.21.22.42.41.62.61l.09.1c.21.22.42.41.62.61l.09.1c.21.22.42.41.62.61l.09.1c.21.22.42.41.62.61l.09.1c.21.22.42.41.62.61l.09.1c.21.22.42.41.62.61l.09.1c.21.22.42.41.62.61l.09.1c.21.22.42.41.62.61l.09.1c.21.22.42.41.62.61l.09.1c.21.22.42.41.62.61l.09.1c.21.22.42.41.62.61l.09.1c.21.22.42.41.62.61l.09.1c.21.22.42.41.62.61l.09.1c.21.22.42.41.62.61l.09.1c.21.22.42.41.62.61l.09.1c.21.22.42.41.62.61l.09.1c.21.22.42.41.62.61l.09.1c.21.22.42.41.62.61l.09.1.41.4c-.64,2.12-1.33,4.4-2.08,6.88Q23,109.56,19.7,120.42T13.8,139.09q-2.57,7.81-4.37,13.13t-3.15,8.61a45.82,45.82,0,0,0,5.15,6l.71.71.71.71.71.71.71.71.71.71.71.71.71.71.71.71.71.71.71.71.71.71.71.71.71.71.71.71.71.71.71.71.71.71.71.71.71.71.71.71.71.71.71.71.71.71.71.71.71.71.71.71.71.71.71.71.71.71.71.71.71.71.71.71.71.71.71.71.71.71.71.71.71.71.71.71.71.71.71.71.71.71.71.71.71.71.71.71.71.71,0,0q-.7,3.37-1.59,6.83Q40,211.79,37.46,221l-1.63,5.47q-4.2,1.24-7,2.26a11.46,11.46,0,0,0-3.56,1.76,10.24,10.24,0,0,0,2,2.52c.22.25.46.48.71.71s.46.48.71.71.46.48.71.71.46.48.71.71.46.48.71.71.46.48.71.71.46.48.71.71.22.22.33.33q-2.59,9.45-4.65,16.76-2.29,8.11-4.1,14.18t-3.15,10.35q-1.33,4.28-2.39,7a47.84,47.84,0,0,0,4.58,5.22l.71.71.71.71L25,294l.71.71.71.71.71.71.71.71.71.71.71.71.71.71.71.71.71.71L32,301l.71.71.71.71.71.71.71.71.71.71.71.71L37,306l.71.71.71.71.71.71.71.71.71.71.71.71.71.71.71.71.71.71.71.71.71.71.71.71.71.71.71.71.71.71.71.71L49,318l.71.71.71.71.71.71.71.71.71.71.71.71.71.71.71.71.71.71.71.71.71.71.71.71.71.71.71.71.71.71.71.71L61,330l.71.71.71.71.71.71.71.71.71.71.71.71L66,335l.71.71.71.71.71.71.71.71.71.71.71.71.71.71.71.71.71.71L73,342l.71.71.71.71.71.71.71.71.71.71.71.71L78,347l.71.71.71.71.71.71.71.71.71.71.71.71.71.71.71.71.71.71.71.71.71.71.71.71.71.71.71.71.71.71.71.71L90,359l.71.71.71.71.71.71.71.71.71.71.71.71L95,364l.71.71.71.71.71.71.71.71.71.71.71.71.71.71.71.71.71.71.71.71.71.71.71.71.71.71.71.71.71.71.71.71.71.71.71.71.71.71.71.71.71.71.71.71.71.71.71.71.71.71.71.71.71.71.71.71.71.71.71.71.71.71.71.71.71.71.71.71.71.71.71.71.71.71.71.71.71.71.71.71.71.71.71.71.71.71.71.71.71.71.71.71.71.71.71.71.71.71.71.71.22.22h249.6Z"/><path class="cls-2" d="M104.11,62.18a35.52,35.52,0,0,1-2.85,17.71A48.53,48.53,0,0,1,90.49,95.46a60.3,60.3,0,0,1-17,11.53,65.43,65.43,0,0,1-21.44,5.73,16.21,16.21,0,0,1-6.6-.44,18.23,18.23,0,0,1-5.75-3.68q-6.49,18.73-10.2,34.28a243.36,243.36,0,0,0-5.31,30,22.06,22.06,0,0,1-10.7-4.19,41.55,41.55,0,0,1-8.14-8.59q1.34-3.28,3.15-8.61t4.37-13.12q2.56-7.8,5.91-18.67t7.91-25.42q2-6.67,3.52-11.63t2.58-9.3q1.07-4.34,1.91-8.57t1.67-9.29a96.72,96.72,0,0,0-13.67,7.14,55.8,55.8,0,0,0-10.1,8A13.9,13.9,0,0,1,9.29,67.9,31.39,31.39,0,0,1,6,63.82a43.21,43.21,0,0,1-2.77-4.63,15.66,15.66,0,0,1-1.58-4.33,59.75,59.75,0,0,1,11.25-7.23A126.54,126.54,0,0,1,27.54,41.3a145.72,145.72,0,0,1,16.38-4.83,126.14,126.14,0,0,1,16.42-2.76,56.58,56.58,0,0,1,17.17.74A38.68,38.68,0,0,1,91,39.88a29.13,29.13,0,0,1,9,9.42A30.59,30.59,0,0,1,104.11,62.18ZM72.92,45.28a86.8,86.8,0,0,0-12.73,2.23l2.26,2.77A61.85,61.85,0,0,0,59,57.1q-2.05,4.52-4.43,10.81t-5.2,14q-2.82,7.74-6,16.35a106.33,106.33,0,0,0,23.12-4.65,67.44,67.44,0,0,0,17.37-8.33A36.91,36.91,0,0,0,94.59,74.39a19.73,19.73,0,0,0,3-12.41q-.83-8.55-7.09-13.17T72.92,45.28Z"/><path class="cls-2" d="M139.88,143.76a12.82,12.82,0,0,1-4.83-6.17,26.59,26.59,0,0,1-1.72-6.64,18.88,18.88,0,0,1,.25-6q-.66.06-2.71,2.91t-4.41,6.72q-2.36,3.87-4.66,7.57t-3.45,5.46a26,26,0,0,1-3.68,4,8,8,0,0,1-2.9,1.77,18.44,18.44,0,0,1-5.6-.37,22.41,22.41,0,0,1-5.68-2,19.14,19.14,0,0,1-4.83-3.54,12.55,12.55,0,0,1-3.06-5.05q-.45-4.6-.49-7.59a43.28,43.28,0,0,1,.45-6.52,128.63,128.63,0,0,1,3-14.57,154.11,154.11,0,0,1,5.15-16.19,108.66,108.66,0,0,1,7.08-15.13A43.66,43.66,0,0,1,116.71,71a28.36,28.36,0,0,1,3.48-.09,22.52,22.52,0,0,1,4.12.51,31.66,31.66,0,0,1,4.1,1.18,10.11,10.11,0,0,1,3.44,2.07,131.37,131.37,0,0,0-6.41,11.75q-5.09,10-10.79,28.28-.65,1.89-1.46,5.46t-1.6,7.46q-.79,3.9-1.17,7.58a30.64,30.64,0,0,0-.18,5.83,3.79,3.79,0,0,0,.6,1.93,5.49,5.49,0,0,0,.84.92q2.37-1.23,5.72-6t9.2-14.67q1.42-2.46,3.35-5.64t3.91-6.77q2-3.59,3.68-7.41a47.79,47.79,0,0,0,2.67-7.56q.46-2,1.27-4.85A56.6,56.6,0,0,1,143.55,85a64.59,64.59,0,0,1,3-6.35,33.88,33.88,0,0,1,4.3-6.15,23.77,23.77,0,0,1,4.65,0,39.37,39.37,0,0,1,4.81.78,23.6,23.6,0,0,1,4,1.27A8.65,8.65,0,0,1,167,76.21q-2.26,7.53-5.19,14.95t-5.39,14.55a119.69,119.69,0,0,0-3.95,14.08,43.58,43.58,0,0,0-.86,13.37,27.57,27.57,0,0,0,1.16,5.95,31.71,31.71,0,0,0,1.65,4.16,30.78,30.78,0,0,0,1.51,2.76,4.63,4.63,0,0,1,.77,1.92c0,.11-.08.28-.28.53a.49.49,0,0,1-.31.2,11.81,11.81,0,0,1-3-.21,36.16,36.16,0,0,1-4.16-1q-2.31-.69-4.64-1.62A43.82,43.82,0,0,1,139.88,143.76Z"/><path class="cls-2" d="M185.84,143.58a82.71,82.71,0,0,0,13.53-14.51,128.45,128.45,0,0,0,11.48-18.55A122.5,122.5,0,0,0,219,90.23a88,88,0,0,0,3.72-19.79A2.63,2.63,0,0,0,220.34,68q-2.3.22-5.94,4.64a111.15,111.15,0,0,0-7.88,11.14q-4.25,6.72-8.51,14.94T190.37,115q-3.37,8-5.6,15a36.47,36.47,0,0,0-2.16,11.09q-1.65.16-3.12-3a6,6,0,0,0-1.32-1.62,18.63,18.63,0,0,0-2.85-2,14.11,14.11,0,0,1-1.8-1.4,7.38,7.38,0,0,1-1.3-1.45,10.21,10.21,0,0,1-1.07-4.21,111.68,111.68,0,0,1,.34-22.11,238.42,238.42,0,0,1,4.09-25.47,254.29,254.29,0,0,1,16.13-49.38A120,120,0,0,1,201.79,12Q207,4.39,212.07,1.58a26,26,0,0,1,4.11,1.26A50.08,50.08,0,0,1,221,5q2.45,1.26,4.65,2.54A18,18,0,0,1,229,9.9q-16.68,16.4-27.69,40.62t-16.37,56.29a149.08,149.08,0,0,1,8.76-17.54,146.35,146.35,0,0,1,10.07-15.17,70.59,70.59,0,0,1,9.91-10.76q4.83-4.12,8.28-4.46a16.42,16.42,0,0,1,5.32,1.81,20.65,20.65,0,0,1,4.83,3.6,25.46,25.46,0,0,1,3.79,4.78,17.4,17.4,0,0,1,2.2,5.51,59.38,59.38,0,0,1-1,15,92.6,92.6,0,0,1-4.43,16,118.68,118.68,0,0,1-7,15.29,83.23,83.23,0,0,1-8.7,13,55.33,55.33,0,0,1-9.56,9.31,19.21,19.21,0,0,1-9.48,4.07,20.88,20.88,0,0,1-4.07,0,19.18,19.18,0,0,1-3.89-.79,13.06,13.06,0,0,1-2.95-1.29A2.23,2.23,0,0,1,185.84,143.58Z"/><path class="cls-2" d="M85.45,270.83a90.16,90.16,0,0,1,.57-18q1.25-11.11,3.83-23.84-10.77,1.92-21.58,4.36a155.44,155.44,0,0,1-18.86,3.22,301.85,301.85,0,0,0-8.67,33,257.55,257.55,0,0,0-4.07,29.07,23.23,23.23,0,0,1-10.87-4.17,42.51,42.51,0,0,1-8.47-8.56q1.06-2.76,2.39-7t3.15-10.35q1.82-6.07,4.1-14.18t5.23-18.85q-5.65-1.78-7.86-5.71A11.48,11.48,0,0,1,27.92,228q2.8-1,7-2.26l1.63-5.47q2.59-9.22,4.22-15.52t2.63-12.29q1-6,1.71-13.2T46.74,161a27.4,27.4,0,0,1,13.17,4.86,46.84,46.84,0,0,1,10.9,10.56,50.38,50.38,0,0,0-3,6.27Q66,186.86,64,192.62t-4.31,12.87q-2.3,7.11-5,15,10.06-2.39,20.39-4.64a160.92,160.92,0,0,1,18.38-3Q95.57,204,98,195.47t4.88-15.57q2.46-7.08,4.85-12.48a41.23,41.23,0,0,1,4.44-8.11,17.57,17.57,0,0,1,4.48.81,55.18,55.18,0,0,1,5.76,2,38.74,38.74,0,0,1,5.41,2.71,11.3,11.3,0,0,1,3.44,2.9,42.21,42.21,0,0,0-5.22,7.81,95.49,95.49,0,0,0-4.85,10.77q-2.32,6-4.46,13.05t-3.91,14.49a9.6,9.6,0,0,1,4,7.08,12.74,12.74,0,0,1-.76,5.88,11.18,11.18,0,0,0-3-.12,31.41,31.41,0,0,1-3.14.14Q108,236,106.51,244.9t-2.26,16.94q-.8,8-1.06,14.68a83,83,0,0,0,.16,11.08c.11,1.1.22,2,.34,2.62a10.41,10.41,0,0,0,.41,1.62,10,10,0,0,1-5.37-.56A8.48,8.48,0,0,1,96,289.2q-.94-1.16-1.72-2.33A4.3,4.3,0,0,0,92,285.18a4.93,4.93,0,0,1-2.36-2.1,20.26,20.26,0,0,1-2-4,34.62,34.62,0,0,1-1.44-4.52A27.65,27.65,0,0,1,85.45,270.83Z"/><path class="cls-2" d="M163.73,268.29a12.82,12.82,0,0,1-4.83-6.17,26.52,26.52,0,0,1-1.72-6.64,18.88,18.88,0,0,1,.25-6q-.66.06-2.71,2.91t-4.41,6.72q-2.36,3.87-4.66,7.57t-3.45,5.46a25.91,25.91,0,0,1-3.68,4,8,8,0,0,1-2.9,1.77,18.37,18.37,0,0,1-5.6-.37,22.41,22.41,0,0,1-5.68-2,19.12,19.12,0,0,1-4.83-3.54,12.55,12.55,0,0,1-3.06-5q-.45-4.6-.49-7.59a43.43,43.43,0,0,1,.45-6.52,128.47,128.47,0,0,1,3-14.57A154.11,154.11,0,0,1,124.54,222a108.45,108.45,0,0,1,7.08-15.13,43.69,43.69,0,0,1,8.94-11.41,28.4,28.4,0,0,1,3.48-.09,22.7,22.7,0,0,1,4.12.51,31.83,31.83,0,0,1,4.1,1.18,10.15,10.15,0,0,1,3.44,2.07,131.85,131.85,0,0,0-6.41,11.75q-5.1,10-10.79,28.27-.65,1.89-1.46,5.46t-1.6,7.46q-.79,3.9-1.17,7.59a30.48,30.48,0,0,0-.18,5.83,3.78,3.78,0,0,0,.6,1.93,5.47,5.47,0,0,0,.84.91q2.37-1.22,5.72-6t9.2-14.67q1.42-2.46,3.35-5.64t3.91-6.77q2-3.59,3.68-7.41a48.07,48.07,0,0,0,2.67-7.56q.47-2,1.27-4.86a56.72,56.72,0,0,1,2.08-5.93,64.7,64.7,0,0,1,3-6.36,33.82,33.82,0,0,1,4.3-6.14,23.61,23.61,0,0,1,4.65,0,38.94,38.94,0,0,1,4.81.78,23.73,23.73,0,0,1,4,1.27,8.61,8.61,0,0,1,2.65,1.65q-2.26,7.53-5.19,14.95t-5.39,14.55a119.41,119.41,0,0,0-3.95,14.08,43.67,43.67,0,0,0-.86,13.37,27.71,27.71,0,0,0,1.16,5.95,31.81,31.81,0,0,0,1.65,4.16,31.25,31.25,0,0,0,1.51,2.76,4.59,4.59,0,0,1,.77,1.92c0,.11-.08.28-.28.53a.49.49,0,0,1-.31.2,11.88,11.88,0,0,1-3-.21,36.64,36.64,0,0,1-4.16-1q-2.31-.69-4.64-1.62A43.41,43.41,0,0,1,163.73,268.29Z"/><path class="cls-2" d="M211,268.11a82.7,82.7,0,0,0,13.54-14.51A128.59,128.59,0,0,0,236,235.05a122.46,122.46,0,0,0,8.16-20.3A88,88,0,0,0,247.86,195a2.63,2.63,0,0,0-2.39-2.42q-2.31.22-5.94,4.64a110.79,110.79,0,0,0-7.88,11.14q-4.25,6.72-8.51,14.94t-7.64,16.26q-3.37,8-5.6,15t-2.16,11.08q-1.65.16-3.12-3a6.06,6.06,0,0,0-1.32-1.62,18.43,18.43,0,0,0-2.85-2,14,14,0,0,1-1.8-1.4,7.25,7.25,0,0,1-1.3-1.45,10.21,10.21,0,0,1-1.07-4.21,112,112,0,0,1,.34-22.12,238.88,238.88,0,0,1,4.09-25.47A254.18,254.18,0,0,1,216.83,155a119.71,119.71,0,0,1,10.08-18.41q5.24-7.65,10.27-10.46a26,26,0,0,1,4.11,1.26,50.14,50.14,0,0,1,4.86,2.18q2.45,1.26,4.65,2.54a17.89,17.89,0,0,1,3.3,2.34q-16.67,16.4-27.68,40.62T210,231.34a149.29,149.29,0,0,1,8.76-17.54,146.18,146.18,0,0,1,10.07-15.17,70.53,70.53,0,0,1,9.91-10.76q4.83-4.12,8.28-4.46a16.45,16.45,0,0,1,5.32,1.81,20.69,20.69,0,0,1,4.83,3.6,25.45,25.45,0,0,1,3.79,4.78,17.51,17.51,0,0,1,2.2,5.51,59.48,59.48,0,0,1-1,15,93,93,0,0,1-4.43,16,119,119,0,0,1-7,15.29,83,83,0,0,1-8.7,13,55.3,55.3,0,0,1-9.55,9.31,19.2,19.2,0,0,1-9.48,4.07,20.7,20.7,0,0,1-4.07,0,19.15,19.15,0,0,1-3.89-.79,13.11,13.11,0,0,1-2.95-1.29A2.23,2.23,0,0,1,211,268.11Z"/><path class="cls-3" d="M104.11,62.18a35.52,35.52,0,0,1-2.85,17.71A48.53,48.53,0,0,1,90.49,95.46a60.3,60.3,0,0,1-17,11.53,65.43,65.43,0,0,1-21.44,5.73,16.21,16.21,0,0,1-6.6-.44,18.23,18.23,0,0,1-5.75-3.68q-6.49,18.73-10.2,34.28a243.37,243.37,0,0,0-5.31,30,22.06,22.06,0,0,1-10.7-4.19,41.55,41.55,0,0,1-8.14-8.59q1.34-3.28,3.15-8.61t4.37-13.12q2.56-7.8,5.91-18.67t7.91-25.42q2-6.67,3.52-11.63t2.58-9.3q1.07-4.34,1.91-8.57t1.67-9.29a96.72,96.72,0,0,0-13.67,7.14,55.8,55.8,0,0,0-10.1,8A13.9,13.9,0,0,1,9.29,67.9,31.39,31.39,0,0,1,6,63.82a43.21,43.21,0,0,1-2.77-4.63,15.66,15.66,0,0,1-1.58-4.33,59.75,59.75,0,0,1,11.25-7.23A126.54,126.54,0,0,1,27.54,41.3a145.72,145.72,0,0,1,16.38-4.83,126.14,126.14,0,0,1,16.42-2.76,56.58,56.58,0,0,1,17.17.74A38.68,38.68,0,0,1,91,39.88a29.13,29.13,0,0,1,9,9.42A30.59,30.59,0,0,1,104.11,62.18ZM72.92,45.28a86.8,86.8,0,0,0-12.73,2.23l2.26,2.77A61.85,61.85,0,0,0,59,57.1q-2.05,4.52-4.43,10.81t-5.2,14q-2.82,7.74-6,16.35a106.33,106.33,0,0,0,23.12-4.65,67.44,67.44,0,0,0,17.37-8.33A36.91,36.91,0,0,0,94.59,74.39a19.73,19.73,0,0,0,3-12.41q-.83-8.55-7.09-13.17T72.92,45.28Z"/><path class="cls-3" d="M139.88,143.76a12.82,12.82,0,0,1-4.83-6.17,26.6,26.6,0,0,1-1.72-6.64,18.88,18.88,0,0,1,.25-6q-.66.06-2.71,2.91t-4.41,6.72q-2.36,3.87-4.66,7.57t-3.45,5.46a26,26,0,0,1-3.68,4,8,8,0,0,1-2.9,1.77,18.44,18.44,0,0,1-5.6-.37,22.41,22.41,0,0,1-5.68-2,19.14,19.14,0,0,1-4.83-3.54,12.55,12.55,0,0,1-3.06-5.05q-.45-4.6-.49-7.59a43.29,43.29,0,0,1,.45-6.52,128.63,128.63,0,0,1,3-14.57,154.11,154.11,0,0,1,5.15-16.19,108.66,108.66,0,0,1,7.08-15.13A43.66,43.66,0,0,1,116.71,71a28.36,28.36,0,0,1,3.48-.09,22.52,22.52,0,0,1,4.12.51,31.66,31.66,0,0,1,4.1,1.18,10.11,10.11,0,0,1,3.44,2.07,131.37,131.37,0,0,0-6.41,11.75q-5.09,10-10.79,28.28-.65,1.89-1.46,5.46t-1.6,7.46q-.79,3.9-1.17,7.58a30.64,30.64,0,0,0-.18,5.83,3.79,3.79,0,0,0,.6,1.93,5.46,5.46,0,0,0,.84.92q2.37-1.22,5.72-6t9.2-14.67q1.42-2.46,3.35-5.64t3.91-6.77q2-3.59,3.68-7.41a47.79,47.79,0,0,0,2.67-7.56q.46-2,1.27-4.85A56.6,56.6,0,0,1,143.55,85a64.59,64.59,0,0,1,3-6.35,33.88,33.88,0,0,1,4.3-6.15,23.77,23.77,0,0,1,4.65,0,39.37,39.37,0,0,1,4.81.78,23.6,23.6,0,0,1,4,1.27A8.65,8.65,0,0,1,167,76.21q-2.26,7.53-5.19,14.95t-5.39,14.55a119.69,119.69,0,0,0-3.95,14.08,43.58,43.58,0,0,0-.86,13.37,27.56,27.56,0,0,0,1.16,5.95,31.73,31.73,0,0,0,1.65,4.16,30.83,30.83,0,0,0,1.51,2.76,4.63,4.63,0,0,1,.77,1.92c0,.11-.08.28-.28.53a.49.49,0,0,1-.31.2,11.81,11.81,0,0,1-3-.21,36.16,36.16,0,0,1-4.16-1q-2.31-.69-4.64-1.62A43.82,43.82,0,0,1,139.88,143.76Z"/><path class="cls-3" d="M185.84,143.58a82.74,82.74,0,0,0,13.53-14.51,128.45,128.45,0,0,0,11.48-18.55A122.5,122.5,0,0,0,219,90.23a88,88,0,0,0,3.72-19.79A2.63,2.63,0,0,0,220.34,68q-2.3.22-5.94,4.64a111.15,111.15,0,0,0-7.88,11.14q-4.25,6.72-8.51,14.94T190.37,115q-3.37,8-5.6,15a36.47,36.47,0,0,0-2.16,11.09q-1.65.16-3.12-3a6,6,0,0,0-1.32-1.62,18.7,18.7,0,0,0-2.85-2,14.16,14.16,0,0,1-1.8-1.4,7.38,7.38,0,0,1-1.3-1.45,10.21,10.21,0,0,1-1.07-4.21,111.68,111.68,0,0,1,.34-22.11,238.42,238.42,0,0,1,4.09-25.47,254.29,254.29,0,0,1,16.13-49.38A120,120,0,0,1,201.79,12Q207,4.39,212.07,1.58a26,26,0,0,1,4.11,1.26A50.08,50.08,0,0,1,221,5q2.45,1.26,4.65,2.54A18,18,0,0,1,229,9.9q-16.68,16.4-27.69,40.62t-16.37,56.29a149.08,149.08,0,0,1,8.76-17.54,146.35,146.35,0,0,1,10.07-15.17,70.59,70.59,0,0,1,9.91-10.76q4.83-4.12,8.28-4.46a16.42,16.42,0,0,1,5.32,1.81,20.65,20.65,0,0,1,4.83,3.6,25.46,25.46,0,0,1,3.79,4.78,17.4,17.4,0,0,1,2.2,5.51,59.38,59.38,0,0,1-1,15,92.6,92.6,0,0,1-4.43,16,118.68,118.68,0,0,1-7,15.29,83.2,83.2,0,0,1-8.7,13,55.37,55.37,0,0,1-9.56,9.31,19.21,19.21,0,0,1-9.48,4.07,20.88,20.88,0,0,1-4.07,0,19.18,19.18,0,0,1-3.89-.79,13.06,13.06,0,0,1-2.95-1.29A2.23,2.23,0,0,1,185.84,143.58Z"/><path class="cls-3" d="M85.45,270.83a90.16,90.16,0,0,1,.57-18q1.25-11.11,3.83-23.84-10.77,1.92-21.58,4.36a155.44,155.44,0,0,1-18.86,3.22,301.85,301.85,0,0,0-8.67,33,257.55,257.55,0,0,0-4.07,29.07,23.23,23.23,0,0,1-10.87-4.17,42.51,42.51,0,0,1-8.47-8.56q1.06-2.76,2.39-7t3.15-10.35q1.82-6.07,4.1-14.18t5.23-18.85q-5.65-1.78-7.86-5.71A11.48,11.48,0,0,1,27.92,228q2.8-1,7-2.26l1.63-5.47q2.59-9.22,4.22-15.52t2.63-12.29q1-6,1.71-13.2T46.74,161a27.4,27.4,0,0,1,13.17,4.86,46.84,46.84,0,0,1,10.9,10.56,50.38,50.38,0,0,0-3,6.27Q66,186.86,64,192.62t-4.31,12.87q-2.3,7.11-5,15,10.06-2.39,20.39-4.64a160.92,160.92,0,0,1,18.38-3Q95.57,204,98,195.47t4.88-15.57q2.46-7.08,4.85-12.48a41.23,41.23,0,0,1,4.44-8.11,17.57,17.57,0,0,1,4.48.81,55.18,55.18,0,0,1,5.76,2,38.74,38.74,0,0,1,5.41,2.71,11.3,11.3,0,0,1,3.44,2.9,42.21,42.21,0,0,0-5.22,7.81,95.49,95.49,0,0,0-4.85,10.77q-2.32,6-4.46,13.05t-3.91,14.49a9.6,9.6,0,0,1,4,7.08,12.74,12.74,0,0,1-.76,5.88,11.18,11.18,0,0,0-3-.12,31.41,31.41,0,0,1-3.14.14Q108,236,106.51,244.9t-2.26,16.94q-.8,8-1.06,14.68a83,83,0,0,0,.16,11.08c.11,1.1.22,2,.34,2.62a10.41,10.41,0,0,0,.41,1.62,10,10,0,0,1-5.37-.56A8.48,8.48,0,0,1,96,289.2q-.94-1.16-1.72-2.33A4.3,4.3,0,0,0,92,285.18a4.93,4.93,0,0,1-2.36-2.1,20.26,20.26,0,0,1-2-4,34.62,34.62,0,0,1-1.44-4.52A27.65,27.65,0,0,1,85.45,270.83Z"/><path class="cls-3" d="M163.73,268.29a12.82,12.82,0,0,1-4.83-6.17,26.52,26.52,0,0,1-1.72-6.64,18.88,18.88,0,0,1,.25-6q-.66.06-2.71,2.91t-4.41,6.72q-2.36,3.87-4.66,7.57t-3.45,5.46a25.91,25.91,0,0,1-3.68,4,8,8,0,0,1-2.9,1.77,18.37,18.37,0,0,1-5.6-.37,22.41,22.41,0,0,1-5.68-2,19.12,19.12,0,0,1-4.83-3.54,12.55,12.55,0,0,1-3.06-5q-.45-4.6-.49-7.59a43.43,43.43,0,0,1,.45-6.52,128.47,128.47,0,0,1,3-14.57A154.11,154.11,0,0,1,124.54,222a108.45,108.45,0,0,1,7.08-15.13,43.69,43.69,0,0,1,8.94-11.41,28.4,28.4,0,0,1,3.48-.09,22.7,22.7,0,0,1,4.12.51,31.83,31.83,0,0,1,4.1,1.18,10.15,10.15,0,0,1,3.44,2.07,131.85,131.85,0,0,0-6.41,11.75q-5.1,10-10.79,28.27-.65,1.89-1.46,5.46t-1.6,7.46q-.79,3.9-1.17,7.59a30.48,30.48,0,0,0-.18,5.83,3.78,3.78,0,0,0,.6,1.93,5.47,5.47,0,0,0,.84.91q2.37-1.22,5.72-6t9.2-14.67q1.42-2.46,3.35-5.64t3.91-6.77q2-3.59,3.68-7.41a48.07,48.07,0,0,0,2.67-7.56q.47-2,1.27-4.86a56.72,56.72,0,0,1,2.08-5.93,64.7,64.7,0,0,1,3-6.36,33.82,33.82,0,0,1,4.3-6.14,23.61,23.61,0,0,1,4.65,0,38.94,38.94,0,0,1,4.81.78,23.73,23.73,0,0,1,4,1.27,8.61,8.61,0,0,1,2.65,1.65q-2.26,7.53-5.19,14.95t-5.39,14.55a119.41,119.41,0,0,0-3.95,14.08,43.67,43.67,0,0,0-.86,13.37,27.71,27.71,0,0,0,1.16,5.95,31.81,31.81,0,0,0,1.65,4.16,31.25,31.25,0,0,0,1.51,2.76,4.59,4.59,0,0,1,.77,1.92c0,.11-.08.28-.28.53a.49.49,0,0,1-.31.2,11.88,11.88,0,0,1-3-.21,36.64,36.64,0,0,1-4.16-1q-2.31-.69-4.64-1.62A43.41,43.41,0,0,1,163.73,268.29Z"/><path class="cls-3" d="M211,268.11a82.7,82.7,0,0,0,13.54-14.51A128.59,128.59,0,0,0,236,235.05a122.46,122.46,0,0,0,8.16-20.3A88,88,0,0,0,247.86,195a2.63,2.63,0,0,0-2.39-2.42q-2.31.22-5.94,4.64a110.79,110.79,0,0,0-7.88,11.14q-4.25,6.72-8.51,14.94t-7.64,16.26q-3.37,8-5.6,15t-2.16,11.08q-1.65.16-3.12-3a6.06,6.06,0,0,0-1.32-1.62,18.43,18.43,0,0,0-2.85-2,14,14,0,0,1-1.8-1.4,7.25,7.25,0,0,1-1.3-1.45,10.21,10.21,0,0,1-1.07-4.21,112,112,0,0,1,.34-22.12,238.88,238.88,0,0,1,4.09-25.47A254.18,254.18,0,0,1,216.83,155a119.66,119.66,0,0,1,10.08-18.41q5.24-7.65,10.27-10.46a26,26,0,0,1,4.11,1.26,50.14,50.14,0,0,1,4.86,2.18q2.45,1.26,4.65,2.54a17.84,17.84,0,0,1,3.3,2.34q-16.67,16.4-27.68,40.62T210,231.34a149.29,149.29,0,0,1,8.76-17.54,146.18,146.18,0,0,1,10.07-15.17,70.53,70.53,0,0,1,9.91-10.76q4.83-4.12,8.28-4.46a16.45,16.45,0,0,1,5.32,1.81,20.69,20.69,0,0,1,4.83,3.6,25.45,25.45,0,0,1,3.79,4.78,17.51,17.51,0,0,1,2.2,5.51,59.48,59.48,0,0,1-1,15,93,93,0,0,1-4.43,16,119,119,0,0,1-7,15.29,83,83,0,0,1-8.7,13,55.3,55.3,0,0,1-9.55,9.31,19.2,19.2,0,0,1-9.48,4.07,20.7,20.7,0,0,1-4.07,0,19.15,19.15,0,0,1-3.89-.79,13.11,13.11,0,0,1-2.95-1.29A2.23,2.23,0,0,1,211,268.11Z"/></svg>