<?xml version="1.0" encoding="utf-8"?>
<!-- Generator: Adobe Illustrator 21.0.0, SVG Export Plug-In . SVG Version: 6.00 Build 0)  -->
<svg version="1.1" id="Layer_1" xmlns="http://www.w3.org/2000/svg" xmlns:xlink="http://www.w3.org/1999/xlink" x="0px" y="0px"
	 viewBox="0 0 40 31.4" style="enable-background:new 0 0 40 31.4;" xml:space="preserve" height="40px" width="60px">
<style type="text/css">
	.st0{fill:#007FFF;}
	.st1{fill:#FFFFFF;}
	.st2{opacity:0.25;enable-background:new    ;}
</style>
<title>blue pin</title>
<g>
	<title>Layer 1</title>
	<path id="svg_2" class="st0" d="M9.7,31.4c-0.7-3.5-2-6.5-3.5-9.2c-1.1-2-2.5-3.9-3.7-5.8c-0.4-0.7-0.8-1.3-1.1-2
		C0.6,13,0,11.4,0,9.4c0-2,0.6-3.6,1.4-4.9c1.4-2.1,3.7-3.9,6.7-4.4c2.5-0.4,4.9,0.3,6.5,1.2c1.4,0.8,2.4,1.9,3.2,3.1
		c0.8,1.3,1.4,2.9,1.5,4.9c0,1-0.1,2-0.4,2.8c-0.2,0.8-0.6,1.5-1,2.2c-0.7,1.4-1.5,2.7-2.4,4C13.1,22.1,10.8,26,9.7,31.4z"/>
	<circle id="svg_4" class="st1" cx="9.6" cy="9.5" r="6.3"/>
	<g id="svg_3" class="st2">
		<path d="M9.7,31.4c2.4-2.2,3.9-4.4,5-6.5c0.8-1.6,1.3-3.1,2-4.7c0.2-0.5,0.5-1,0.8-1.6c0.5-1.1,1.3-2.2,3.1-3.3
			c1.7-1.1,3.6-1.7,5.4-2.1c3-0.6,6.4-0.7,9.3,0.3c2.4,0.8,3.8,2.1,4.3,3.3c0.4,1,0.4,2,0,3c-0.4,1.1-1.3,2.2-3,3.3
			c-0.9,0.6-1.8,1-2.7,1.4c-0.9,0.3-1.8,0.6-2.7,0.8c-1.8,0.5-3.6,0.9-5.4,1.2C20.5,27.6,15.2,28.8,9.7,31.4z"/>
	</g>
</g>
</svg>
