<svg id="Layer_1" data-name="Layer 1" xmlns="http://www.w3.org/2000/svg" viewBox="0 0 152 152"><defs><style>.cls-1{fill:#2c98ca;}.cls-2{fill:#2484af;}.cls-3{fill:#fff;}</style></defs><title>icon-</title><rect class="cls-1" width="152" height="152"/><path class="cls-2" d="M152,77.67l-.13-.1,0,0-.24-.2,0,0-.24-.2,0,0-.24-.2,0,0-.24-.2,0,0-.24-.2,0,0-.24-.2,0,0-.24-.2,0,0-.24-.2,0,0-.24-.2,0,0-.24-.2,0,0-.24-.2,0,0-.24-.2,0,0-.24-.2,0,0-.24-.2,0,0-.24-.2,0,0-.24-.2,0,0-.24-.2,0,0-.24-.2,0,0-.24-.2,0,0-.24-.2,0,0-.24-.2,0,0-.24-.2,0,0-.24-.2,0,0-.24-.2,0,0-.24-.2,0,0-.24-.2,0,0-.24-.2,0,0-.24-.2,0,0-.24-.2,0,0-.24-.2,0,0-.24-.2,0,0-.24-.2,0,0-.24-.2,0,0-.24-.2,0,0-.24-.2,0,0-.24-.2,0,0-.24-.2,0,0-.24-.2,0,0-.24-.2,0,0-.24-.2,0,0-.24-.2,0,0-.24-.2,0,0-.24-.2,0,0-.24-.2,0,0-.24-.2,0,0-.24-.2,0,0-.24-.2,0,0-.24-.2,0,0-.24-.2,0,0-.24-.2,0,0-.24-.2,0,0-.24-.2,0,0-.24-.2,0,0-.24-.2,0,0-.24-.2,0,0-.24-.2,0,0-.24-.2,0,0-.24-.2,0,0-.24-.2,0,0-.24-.2,0,0-.24-.2,0,0-.24-.2,0,0-.24-.2,0,0-.24-.2,0,0-.24-.2,0,0-.24-.2,0,0-.24-.2,0,0-.24-.2,0,0-.24-.2,0,0-.24-.2,0,0-.24-.2,0,0-.24-.2,0,0-.24-.2,0,0-.24-.2,0,0-.24-.2,0,0-.24-.2,0,0-.24-.2,0,0-.24-.2,0,0-.24-.2,0,0-.24-.2,0,0-.24-.2,0,0-.24-.2,0,0-.24-.2,0,0-.24-.2,0,0-.24-.2,0,0-.24-.2,0,0-.24-.2,0,0-.24-.2,0,0-.24-.2,0,0-.24-.2,0,0-.24-.2,0,0-.24-.2,0,0-.24-.2,0,0-.24-.2,0,0-.24-.2,0,0-.24-.2,0,0-.24-.2,0,0-.24-.2,0,0-.24-.2,0,0-.24-.2,0,0-.24-.2,0,0-.24-.2,0,0-.24-.2,0,0-.24-.2,0,0-.24-.2,0,0-.24-.2,0,0-.24-.2,0,0-.24-.2,0,0-.24-.2,0,0-.24-.2,0,0-.24-.2,0,0-.24-.2,0,0-.24-.2,0,0-.24-.2,0,0-.24-.2,0,0-.24-.2,0,0-.24-.2,0,0-.24-.2,0,0-.24-.2,0,0-.24-.2,0,0-.24-.2,0,0-.24-.2,0,0-.24-.2,0,0-.24-.2,0,0-.24-.2,0,0-.24-.2,0,0-.24-.2,0,0-.24-.2,0,0-.24-.2,0,0-.24-.2,0,0-.24-.2,0,0-.24-.2,0,0-.24-.2,0,0-.24-.2,0,0-.24-.2,0,0-.24-.2,0,0-.24-.2,0,0-.24-.2,0,0-.24-.2,0,0-.24-.2,0,0-.24-.2,0,0-.24-.2,0,0-.24-.2,0,0-.24-.2,0,0-.24-.2,0,0-.24-.2,0,0-.24-.2,0,0-.24-.2,0,0-.24-.2,0,0-.24-.2,0,0-.24-.2,0,0-.24-.2,0,0-.24-.2,0,0-.24-.2,0,0-.24-.2,0,0-.24-.2,0,0-.24-.2,0,0-.24-.2,0,0-.24-.2,0,0-.24-.2,0,0-.24-.2,0,0-.24-.2,0,0-.24-.2,0,0-.24-.2,0,0-.24-.2,0,0-.24-.2,0,0-.24-.2,0,0-.24-.2,0,0-.24-.2,0,0-.24-.2,0,0-.24-.2,0,0-.24-.2,0,0-.24-.2,0,0-.24-.2,0,0-.24-.2,0,0-.24-.2,0,0-.24-.2,0,0-.24-.2,0,0-.24-.2,0,0-.24-.2,0,0-.24-.2,0,0-.24-.2,0,0-.24-.2,0,0-.24-.2,0,0-.24-.2,0,0-.24-.2,0,0-.24-.2,0,0-.24-.2,0,0-.24-.2,0,0-.24-.2,0,0-.24-.2,0,0-.24-.2,0,0-.24-.2,0,0-.24-.2,0,0-.24-.2,0,0-.24-.2,0,0-.24-.2,0,0-.24-.2,0,0-.24-.2,0,0-.24-.2,0,0-.24-.2,0,0-.24-.2,0,0-.24-.2,0,0-.24-.2,0,0-.24-.2,0,0-.24-.2,0,0-.24-.2,0,0-.24-.2,0,0-.24-.2,0,0-.24-.2,0,0-.24-.2,0,0-.24-.2,0,0a5.61,5.61,0,0,0-1-.73q-.69-.4-1.45-.79a15.61,15.61,0,0,0-1.52-.68,8.14,8.14,0,0,0-1.28-.39,10.3,10.3,0,0,0-3.21,3.26,37.3,37.3,0,0,0-3.15,5.73,79.06,79.06,0,0,0-5,15.38c-.09.43-.17.86-.26,1.28L88,53.76v0a1.9,1.9,0,0,0-.23-.19v0a1.9,1.9,0,0,0-.23-.19v0a1.9,1.9,0,0,0-.23-.19v0a1.9,1.9,0,0,0-.23-.19v0a1.9,1.9,0,0,0-.23-.19v0a1.9,1.9,0,0,0-.23-.19v0a1.9,1.9,0,0,0-.23-.19v0A1.9,1.9,0,0,0,86.2,52v0a1.9,1.9,0,0,0-.23-.19v0a1.9,1.9,0,0,0-.23-.19v0a2.7,2.7,0,0,0-.83-.51,7.4,7.4,0,0,0-1.26-.4,12.27,12.27,0,0,0-1.5-.24,7.42,7.42,0,0,0-1.45,0,10.53,10.53,0,0,0-1.34,1.91,20.14,20.14,0,0,0-.95,2l-.13.34h0l0,0-.24-.2,0,0-.24-.2,0,0-.24-.2,0,0-.24-.2,0,0-.24-.2,0,0-.24-.2,0,0-.24-.2,0,0-.24-.2,0,0-.24-.2,0,0-.24-.2,0,0-.24-.2,0,0-.24-.2,0,0-.24-.2,0,0-.24-.2,0,0-.24-.2,0,0-.24-.2,0,0a3.16,3.16,0,0,0-1.07-.65A9.9,9.9,0,0,0,72.44,50L72.08,50l0,0-.22-.22-.22-.22-.22-.22L71.17,49l-.22-.22-.22-.22-.22-.22-.22-.22-.22-.22-.22-.22-.22-.22-.22-.22-.22-.22L69,46.84l-.22-.22-.22-.22-.22-.22L68.08,46l-.22-.22-.22-.22-.22-.22-.22-.22L67,44.86l-.22-.22-.22-.22-.22-.22L66.09,44l-.22-.22-.22-.22-.22-.22-.22-.22L65,42.88l-.22-.22-.22-.22-.22-.22L64.11,42l-.22-.22-.22-.22A9.42,9.42,0,0,0,62,40.2a12.08,12.08,0,0,0-4.21-1.69,17.68,17.68,0,0,0-5.36-.23,39.42,39.42,0,0,0-5.12.86,45.62,45.62,0,0,0-5.11,1.5,39.54,39.54,0,0,0-4.58,2,18.65,18.65,0,0,0-3.51,2.25,4.87,4.87,0,0,0,.49,1.35,13.43,13.43,0,0,0,.87,1.44,9.78,9.78,0,0,0,1,1.27l.19.19,0,0,.19.19,0,0,.19.19,0,0,.19.19,0,0,.19.19,0,0,.19.19,0,0,.19.19,0,0,.19.19,0,0,.19.19,0,0,.19.19,0,0,.19.19,0,0,.19.19,0,0,.19.19,0,0,.19.19,0,0,.19.19,0,0,.19.19,0,0,.19.19,0,0,.19.19,0,0,.19.19,0,0,.19.19,0,0,.19.19,0,0,.19.19,0,0,.19.19,0,0,.19.19,0,0,.19.19,0,0,.19.19,0,0,.19.19,0,0,.13.12L42,57.14q-1.42,4.53-2.47,7.92t-1.84,5.82q-.8,2.43-1.36,4.09t-1,2.68a14.28,14.28,0,0,0,1.61,1.87l.22.22.22.22.22.22.22.22.22.22.22.22.22.22.22.22.22.22.22.22.22.22.22.22.22.22.22.22.22.22.22.22.22.22.22.22.22.22.22.22.22.22.22.22.22.22.22.22.22.22.22.22.22.22.22.22.22.22.22.22.22.22.22.22.22.22.22.22.22.22.22.22.22.22.22.22.22.22.22.22.22.22.22.22.22.22.22.22.22.22h0q-.22,1-.5,2.13-.51,2-1.32,4.83l-.51,1.7q-1.31.39-2.19.7a3.58,3.58,0,0,0-1.11.55,3.19,3.19,0,0,0,.63.78l.22.22.22.22.22.22.22.22.22.22.22.22.22.22.1.1q-.81,2.94-1.45,5.22-.71,2.53-1.28,4.42t-1,3.22q-.41,1.33-.75,2.19a14.91,14.91,0,0,0,1.43,1.63l.22.22.22.22.22.22.22.22.22.22.22.22L42,120l.22.22.22.22.22.22.22.22.22.22.22.22.22.22.22.22L44,122l.22.22.22.22.22.22.22.22.22.22.22.22.22.22.22.22L46,124l.22.22.22.22.22.22.22.22.22.22.22.22.22.22.22.22.22.22.22.22.22.22.22.22.22.22.22.22.22.22.22.22.22.22.22.22.22.22.22.22.22.22.22.22.22.22.22.22.22.22.22.22.22.22.22.22.22.22.22.22.22.22.22.22.22.22.22.22.22.22.22.22.22.22.22.22.22.22.22.22L55,133l.22.22.22.22.22.22.22.22.22.22.22.22.22.22.22.22L57,135l.22.22.22.22.22.22.22.22.22.22.22.22.22.22.22.22L59,137l.22.22.22.22.22.22.22.22.22.22.22.22.22.22.22.22.22.22.22.22.22.22.22.22.22.22.22.22.22.22.22.22.22.22.22.22.22.22.22.22.22.22.22.22.22.22.22.22.22.22.22.22.22.22.22.22.22.22.22.22.22.22.22.22.22.22.22.22.22.22.22.22.22.22.22.22.22.22.22.22.22.22.22.22.22.22.22.22.22.22.22.22.22.22.22.22.22.22.22.22.22.22.22.22.22.22.22.22.22.22.22.22.22.22.22.22.22.22.22.22.22.22.22.22.22.22.22.22.22.22.22.22.22.22.22.22.07.07H152Z"/><path class="cls-3" d="M65.85,46.92A11,11,0,0,1,65,52.44a15.11,15.11,0,0,1-3.36,4.85,18.82,18.82,0,0,1-5.3,3.59,20.46,20.46,0,0,1-6.69,1.79,5.07,5.07,0,0,1-2.06-.14,5.69,5.69,0,0,1-1.8-1.14q-2,5.83-3.18,10.68a75.66,75.66,0,0,0-1.66,9.34,6.89,6.89,0,0,1-3.34-1.31A13,13,0,0,1,35,77.42q.42-1,1-2.68t1.36-4.09q.8-2.43,1.84-5.82t2.47-7.92l1.1-3.62q.47-1.54.81-2.9t.6-2.67q.26-1.32.52-2.89a30.21,30.21,0,0,0-4.27,2.22,17.41,17.41,0,0,0-3.15,2.48,4.34,4.34,0,0,1-1-.83,9.78,9.78,0,0,1-1-1.27A13.45,13.45,0,0,1,34.36,46a4.87,4.87,0,0,1-.49-1.35,18.65,18.65,0,0,1,3.51-2.25,39.54,39.54,0,0,1,4.58-2,45.55,45.55,0,0,1,5.11-1.5,39.45,39.45,0,0,1,5.12-.86,17.7,17.7,0,0,1,5.36.23A12.09,12.09,0,0,1,61.76,40a9.08,9.08,0,0,1,2.82,2.93A9.51,9.51,0,0,1,65.85,46.92Zm-9.74-5.26a27.14,27.14,0,0,0-4,.7l.71.86a19.25,19.25,0,0,0-1.09,2.12q-.64,1.41-1.38,3.37t-1.62,4.37l-1.86,5.09a33.25,33.25,0,0,0,7.22-1.45,21.07,21.07,0,0,0,5.42-2.59,11.51,11.51,0,0,0,3.35-3.4,6.14,6.14,0,0,0,.95-3.87,5.5,5.5,0,0,0-2.21-4.1A7.8,7.8,0,0,0,56.12,41.66Z"/><path class="cls-3" d="M77,72.33a4,4,0,0,1-1.51-1.92A8.27,8.27,0,0,1,75,68.34,5.87,5.87,0,0,1,75,66.47q-.21,0-.84.91t-1.38,2.09l-1.45,2.36q-.72,1.15-1.08,1.7a8.11,8.11,0,0,1-1.15,1.25,2.51,2.51,0,0,1-.9.55,5.77,5.77,0,0,1-1.75-.12,7,7,0,0,1-1.77-.64,6,6,0,0,1-1.51-1.1,3.91,3.91,0,0,1-1-1.57q-.14-1.43-.15-2.36a13.45,13.45,0,0,1,.14-2A40,40,0,0,1,63.18,63a47.93,47.93,0,0,1,1.61-5A33.81,33.81,0,0,1,67,53.21a13.6,13.6,0,0,1,2.79-3.55,8.87,8.87,0,0,1,1.09,0,7,7,0,0,1,1.29.16,9.9,9.9,0,0,1,1.28.37,3.16,3.16,0,0,1,1.07.65,40.89,40.89,0,0,0-2,3.66,57.94,57.94,0,0,0-3.37,8.81q-.2.59-.46,1.7t-.5,2.32q-.25,1.21-.37,2.36a9.52,9.52,0,0,0-.06,1.82,1.18,1.18,0,0,0,.19.6,1.71,1.71,0,0,0,.26.29A6,6,0,0,0,70,70.48q1-1.5,2.87-4.57.44-.77,1-1.76T75.13,62q.62-1.12,1.15-2.31a14.87,14.87,0,0,0,.83-2.36q.14-.63.4-1.51A17.61,17.61,0,0,1,78.16,54a20.1,20.1,0,0,1,.95-2,10.55,10.55,0,0,1,1.34-1.91,7.43,7.43,0,0,1,1.45,0,12.31,12.31,0,0,1,1.5.24,7.38,7.38,0,0,1,1.26.4,2.7,2.7,0,0,1,.83.51q-.7,2.34-1.62,4.66t-1.68,4.53A37.22,37.22,0,0,0,81,64.87,13.55,13.55,0,0,0,80.68,69,8.57,8.57,0,0,0,81,70.88a9.87,9.87,0,0,0,.51,1.29A9.58,9.58,0,0,0,82,73a1.44,1.44,0,0,1,.24.6s0,.09-.09.16a.15.15,0,0,1-.1.06,3.69,3.69,0,0,1-.94-.06,11.3,11.3,0,0,1-1.3-.31q-.72-.22-1.45-.51A13.69,13.69,0,0,1,77,72.33Z"/><path class="cls-3" d="M91.36,72.28a25.78,25.78,0,0,0,4.22-4.52A40,40,0,0,0,99.17,62a38.11,38.11,0,0,0,2.55-6.32,27.37,27.37,0,0,0,1.16-6.16.82.82,0,0,0-.75-.75q-.72.07-1.85,1.45a34.62,34.62,0,0,0-2.46,3.47q-1.32,2.09-2.66,4.65t-2.38,5.07Q91.72,65.88,91,68a11.34,11.34,0,0,0-.67,3.45q-.51,0-1-.94a1.87,1.87,0,0,0-.41-.5,5.82,5.82,0,0,0-.89-.61,4.4,4.4,0,0,1-.56-.44,2.3,2.3,0,0,1-.41-.45,3.18,3.18,0,0,1-.33-1.31,34.71,34.71,0,0,1,.11-6.89,74.12,74.12,0,0,1,1.28-7.93,79.09,79.09,0,0,1,5-15.38,37.36,37.36,0,0,1,3.15-5.73A10.3,10.3,0,0,1,99.55,28a8.12,8.12,0,0,1,1.28.39,15.65,15.65,0,0,1,1.52.68q.76.39,1.45.79a5.61,5.61,0,0,1,1,.73,41.71,41.71,0,0,0-8.64,12.65,70.26,70.26,0,0,0-5.11,17.53,46.4,46.4,0,0,1,2.73-5.46A45.58,45.58,0,0,1,97,50.64,22,22,0,0,1,100,47.29a5.13,5.13,0,0,1,2.59-1.39,5.13,5.13,0,0,1,1.66.56,6.44,6.44,0,0,1,1.51,1.12A7.93,7.93,0,0,1,107,49.07a5.41,5.41,0,0,1,.69,1.72,18.46,18.46,0,0,1-.3,4.66,28.8,28.8,0,0,1-1.38,5,36.93,36.93,0,0,1-2.18,4.76,25.92,25.92,0,0,1-2.71,4.06,17.25,17.25,0,0,1-3,2.9,6,6,0,0,1-3,1.27,6.53,6.53,0,0,1-1.27,0,6,6,0,0,1-1.22-.24,4.08,4.08,0,0,1-.92-.4A.69.69,0,0,1,91.36,72.28Z"/><path class="cls-3" d="M60,111.91a28,28,0,0,1,.18-5.62q.39-3.46,1.2-7.43-3.36.6-6.73,1.36a48.61,48.61,0,0,1-5.89,1,93.86,93.86,0,0,0-2.7,10.28,80.07,80.07,0,0,0-1.27,9.06,7.26,7.26,0,0,1-3.39-1.3,13.26,13.26,0,0,1-2.64-2.67q.33-.86.75-2.19t1-3.22q.57-1.89,1.28-4.42t1.63-5.87A4,4,0,0,1,41,99.12a3.58,3.58,0,0,1,1.11-.55q.88-.32,2.19-.7l.51-1.7q.81-2.87,1.32-4.83t.82-3.83q.31-1.87.53-4.11t.51-5.69a8.56,8.56,0,0,1,4.11,1.51,14.61,14.61,0,0,1,3.4,3.29,15.68,15.68,0,0,0-1,2q-.55,1.29-1.18,3.09t-1.35,4q-.72,2.22-1.57,4.68,3.14-.75,6.36-1.44a50.32,50.32,0,0,1,5.74-.94q.66-2.77,1.42-5.41t1.52-4.85q.77-2.2,1.51-3.89a12.84,12.84,0,0,1,1.39-2.53,5.49,5.49,0,0,1,1.4.25,17.25,17.25,0,0,1,1.8.63,12.1,12.1,0,0,1,1.69.84,3.52,3.52,0,0,1,1.07.9,13.14,13.14,0,0,0-1.63,2.43,29.71,29.71,0,0,0-1.51,3.35q-.72,1.88-1.39,4.07t-1.22,4.51a3,3,0,0,1,1.25,2.21,4,4,0,0,1-.24,1.83,3.5,3.5,0,0,0-.94,0c-.31,0-.64,0-1,0q-.61,2.84-1.06,5.62t-.7,5.28q-.25,2.5-.33,4.57a25.81,25.81,0,0,0,.05,3.45c0,.34.07.61.11.82a3.24,3.24,0,0,0,.13.5,3.12,3.12,0,0,1-1.68-.17,2.64,2.64,0,0,1-.84-.64q-.29-.36-.54-.73a1.34,1.34,0,0,0-.72-.53,1.54,1.54,0,0,1-.74-.65,6.3,6.3,0,0,1-.64-1.23,10.77,10.77,0,0,1-.45-1.41A8.6,8.6,0,0,1,60,111.91Z"/><path class="cls-3" d="M84.46,111.12A4,4,0,0,1,83,109.2a8.25,8.25,0,0,1-.54-2.07,5.87,5.87,0,0,1,.08-1.87q-.21,0-.84.91t-1.38,2.09l-1.45,2.36q-.72,1.15-1.08,1.7a8.08,8.08,0,0,1-1.15,1.25,2.5,2.5,0,0,1-.91.55,5.74,5.74,0,0,1-1.75-.12,7,7,0,0,1-1.77-.64,6,6,0,0,1-1.51-1.1,3.91,3.91,0,0,1-1-1.57q-.14-1.43-.15-2.36a13.5,13.5,0,0,1,.14-2,39.94,39.94,0,0,1,.93-4.54,47.93,47.93,0,0,1,1.61-5A33.75,33.75,0,0,1,74.44,92a13.61,13.61,0,0,1,2.79-3.55,8.88,8.88,0,0,1,1.09,0,7.1,7.1,0,0,1,1.29.16,10,10,0,0,1,1.28.37,3.17,3.17,0,0,1,1.07.65,41,41,0,0,0-2,3.66,57.9,57.9,0,0,0-3.37,8.81q-.2.59-.46,1.7t-.5,2.32q-.25,1.21-.37,2.36a9.48,9.48,0,0,0-.06,1.82,1.18,1.18,0,0,0,.19.6,1.71,1.71,0,0,0,.26.28,6,6,0,0,0,1.79-1.88q1-1.5,2.87-4.57.44-.77,1-1.76t1.22-2.11q.62-1.12,1.15-2.31a15,15,0,0,0,.83-2.36q.15-.64.4-1.51a17.64,17.64,0,0,1,.65-1.85,20.13,20.13,0,0,1,.95-2,10.53,10.53,0,0,1,1.34-1.91,7.38,7.38,0,0,1,1.45,0,12.18,12.18,0,0,1,1.5.24,7.42,7.42,0,0,1,1.26.4,2.69,2.69,0,0,1,.83.51q-.7,2.34-1.62,4.66t-1.68,4.53a37.14,37.14,0,0,0-1.23,4.39,13.58,13.58,0,0,0-.27,4.16,8.62,8.62,0,0,0,.36,1.85A9.9,9.9,0,0,0,89,111a9.73,9.73,0,0,0,.47.86,1.43,1.43,0,0,1,.24.6s0,.09-.09.16a.15.15,0,0,1-.1.06,3.72,3.72,0,0,1-.94-.06,11.46,11.46,0,0,1-1.3-.31q-.72-.22-1.45-.51A13.56,13.56,0,0,1,84.46,111.12Z"/><path class="cls-3" d="M99.2,111.06a25.78,25.78,0,0,0,4.22-4.52,40,40,0,0,0,3.58-5.78,38.1,38.1,0,0,0,2.55-6.32,27.36,27.36,0,0,0,1.16-6.16.82.82,0,0,0-.75-.75q-.72.07-1.85,1.45a34.51,34.51,0,0,0-2.46,3.47q-1.33,2.09-2.66,4.65t-2.38,5.07q-1.05,2.51-1.75,4.67a11.32,11.32,0,0,0-.67,3.45q-.51.05-1-.94a1.89,1.89,0,0,0-.41-.5,5.75,5.75,0,0,0-.89-.61,4.37,4.37,0,0,1-.56-.44,2.26,2.26,0,0,1-.41-.45,3.18,3.18,0,0,1-.34-1.31,34.81,34.81,0,0,1,.11-6.89A74.27,74.27,0,0,1,96,91.21a79.06,79.06,0,0,1,5-15.38,37.26,37.26,0,0,1,3.15-5.73,10.31,10.31,0,0,1,3.21-3.26,8.11,8.11,0,0,1,1.28.39,15.66,15.66,0,0,1,1.52.68q.76.39,1.45.79a5.58,5.58,0,0,1,1,.73A41.71,41.71,0,0,0,104,82.08a70.23,70.23,0,0,0-5.11,17.53,46.46,46.46,0,0,1,2.73-5.46,45.52,45.52,0,0,1,3.14-4.73,22,22,0,0,1,3.09-3.35,5.13,5.13,0,0,1,2.59-1.39,5.14,5.14,0,0,1,1.66.56,6.46,6.46,0,0,1,1.51,1.12,7.93,7.93,0,0,1,1.18,1.49,5.45,5.45,0,0,1,.69,1.72,18.49,18.49,0,0,1-.3,4.66,28.91,28.91,0,0,1-1.38,5,37,37,0,0,1-2.18,4.76,25.83,25.83,0,0,1-2.71,4.06,17.24,17.24,0,0,1-3,2.9,6,6,0,0,1-3,1.27,6.47,6.47,0,0,1-1.27,0,6,6,0,0,1-1.22-.24,4.1,4.1,0,0,1-.92-.4A.7.7,0,0,1,99.2,111.06Z"/></svg>